<svg width="250" height="30" viewBox="0 0 250 30" fill="none" xmlns="http://www.w3.org/2000/svg">
<path d="M12.342 22.7205C20.9533 22.7205 24.684 19.102 24.684 12.5944C24.684 6.1149 20.9533 2.5245 12.342 2.5245C3.7026 2.5245 0 6.08685 0 12.5944C0 19.1301 3.7026 22.7205 12.342 22.7205ZM12.342 18.4849C7.09665 18.4849 5.049 16.6336 5.049 12.5944C5.049 8.5833 7.0686 6.76005 12.342 6.76005C17.6154 6.76005 19.635 8.61135 19.635 12.5944C19.635 16.6056 17.5873 18.4849 12.342 18.4849Z" fill="black" fill-opacity="0.3"/>
<path d="M39.7028 5.63805C36.1404 5.63805 33.2793 6.6198 31.4841 8.4711V5.91855H26.6595V29.4525H31.4841V19.8874C33.2793 21.7668 36.1404 22.7205 39.7028 22.7205C45.0323 22.7205 49.5483 20.5045 49.5483 14.1933C49.5483 7.88205 45.0323 5.63805 39.7028 5.63805ZM38.1039 18.7093C33.8123 18.7093 31.4841 17.4471 31.4841 14.1933C31.4841 10.9114 33.8123 9.6492 38.1039 9.6492C42.3956 9.6492 44.7518 10.9114 44.7518 14.1933C44.7518 17.4471 42.3956 18.7093 38.1039 18.7093Z" fill="black" fill-opacity="0.3"/>
<path d="M62.251 18.8215C59.0533 18.8215 56.5288 17.952 55.9959 15.3153H73.8357C73.8357 7.7979 68.8147 5.63805 62.5315 5.63805C55.8276 5.63805 51.0871 8.10645 51.0871 14.1933C51.0871 20.2521 55.9678 22.7205 62.251 22.7205C68.3659 22.7205 72.4612 20.7289 73.5552 16.5214H68.7867C67.5805 18.2044 65.5609 18.8215 62.251 18.8215ZM62.5035 9.28454C65.5329 9.28454 67.8891 9.9297 68.7025 12.2578H56.1642C56.9215 9.9297 59.2216 9.28454 62.5035 9.28454Z" fill="black" fill-opacity="0.3"/>
<path d="M90.0825 5.63805C86.0714 5.63805 82.8176 6.9564 80.4614 8.8077V5.91855H75.6648V22.44H80.4614V13.1835C81.948 11.4444 85.4262 9.78944 88.652 9.78944C92.607 9.78944 93.7851 11.6127 93.7851 15.1189V22.44H98.6097L98.6658 13.2957C98.6097 7.20884 94.4864 5.63805 90.0825 5.63805Z" fill="black" fill-opacity="0.3"/>
<path d="M100.339 14.1933C100.339 20.2521 104.939 22.7205 111.783 22.7205C117.954 22.7205 122.302 20.7009 123.088 15.8482H118.179C117.534 17.98 115.262 18.7093 111.783 18.7093C107.66 18.7093 105.136 17.6154 105.136 14.1933C105.136 10.7431 107.66 9.6492 111.783 9.6492C115.262 9.6492 117.534 10.3785 118.179 12.5103H123.088C122.302 7.65765 117.954 5.63805 111.783 5.63805C104.939 5.63805 100.339 8.10645 100.339 14.1933Z" fill="black" fill-opacity="0.3"/>
<path d="M139.334 5.63805C135.323 5.63805 132.069 6.9564 129.713 8.8077V0H124.917V22.44H129.713V13.1835C131.2 11.4444 134.678 9.78944 137.904 9.78944C141.859 9.78944 143.037 11.6127 143.037 15.1189V22.44H147.862L147.918 13.2957C147.862 7.20884 143.738 5.63805 139.334 5.63805Z" fill="black" fill-opacity="0.3"/>
<path d="M161.091 5.63805C157.641 5.63805 154.331 6.25515 150.965 7.3491L152.676 10.8553C156.07 9.84554 158.707 9.6492 160.867 9.6492C163.111 9.6492 167.15 9.90164 167.15 13.0432C164.99 12.3139 162.382 11.8651 159.549 11.8651C154.303 11.8651 149.591 13.2115 149.591 17.5032C149.591 21.2338 152.48 22.7205 157.108 22.7205C161.007 22.7205 164.233 21.8229 167.15 20.3923V22.44H171.975V14.1091C171.919 7.854 167.992 5.63805 161.091 5.63805ZM167.15 17.3068C164.682 18.3727 161.091 19.1862 158.483 19.1862C155.986 19.1862 154.387 19.0459 154.387 17.3068C154.387 15.6238 156.547 15.0067 160.138 15.0067C163.195 15.0067 165.467 15.4836 167.15 16.0165V17.3068Z" fill="black" fill-opacity="0.3"/>
<path d="M187.381 5.63805C184.296 5.63805 181.379 6.5076 178.91 8.72355V5.91855H174.114V22.44H178.91V12.5383C181.827 10.2663 184.913 9.6492 187.606 9.6492C189.008 9.6492 190.27 9.8175 191.841 10.2102V6.19905C190.719 5.91855 189.345 5.63805 187.381 5.63805Z" fill="black" fill-opacity="0.3"/>
<path d="M210.634 5.91855V8.58329C208.979 6.732 206.202 5.63805 202.275 5.63805C196.609 5.63805 192.57 8.10645 192.57 13.9408C192.57 19.7752 196.609 22.2436 202.275 22.2436C206.174 22.2436 208.951 21.1497 210.634 19.2984C210.438 23.5339 208.586 25.4413 203.621 25.4413C199.975 25.4413 196.272 24.6279 194.337 24.2632V28.1341C195.936 28.5549 199.891 29.4525 204.687 29.4525C210.942 29.4525 215.459 26.5353 215.459 19.8033V5.91855H210.634ZM204.014 18.2325C199.498 18.2325 197.366 16.9702 197.366 13.9408C197.366 10.9114 199.498 9.6492 204.014 9.6492C208.53 9.6492 210.634 10.9114 210.634 13.9408C210.634 16.9702 208.53 18.2325 204.014 18.2325Z" fill="black" fill-opacity="0.3"/>
<path d="M228.579 18.8215C225.381 18.8215 222.856 17.952 222.324 15.3153H240.163C240.163 7.7979 235.142 5.63805 228.859 5.63805C222.155 5.63805 217.415 8.10645 217.415 14.1933C217.415 20.2521 222.295 22.7205 228.579 22.7205C234.694 22.7205 238.789 20.7289 239.883 16.5214H235.114C233.908 18.2044 231.889 18.8215 228.579 18.8215ZM228.831 9.28454C231.861 9.28454 234.217 9.9297 235.03 12.2578H222.492C223.249 9.9297 225.549 9.28454 228.831 9.28454Z" fill="black" fill-opacity="0.3"/>
<path d="M246.202 5.25952C243.658 5.25952 242.403 6.72239 242.403 8.76577C242.403 10.8091 243.658 12.272 246.202 12.272C248.745 12.272 250 10.8091 250 8.76577C250 6.72239 248.745 5.25952 246.202 5.25952ZM246.202 11.3432C244.427 11.3432 243.308 10.5073 243.308 8.76577C243.308 7.02426 244.427 6.18833 246.202 6.18833C247.965 6.18833 249.096 7.02426 249.096 8.76577C249.096 10.5073 247.965 11.3432 246.202 11.3432ZM248.112 8.35942C248.112 7.67442 247.649 7.23324 246.97 7.23324H244.608V10.3099H245.377V9.4856H246.62L247.106 10.3099H248.022L247.468 9.39271C247.864 9.23017 248.112 8.85865 248.112 8.35942ZM245.377 7.89501H246.756C246.982 7.89501 247.344 7.89501 247.344 8.35942C247.344 8.82382 246.982 8.82382 246.756 8.82382H245.377V7.89501Z" fill="black" fill-opacity="0.21"/>
</svg>
